<?xml version="1.0" standalone="no"?>
<!DOCTYPE svg PUBLIC "-//W3C//DTD SVG 20010904//EN"
 "http://www.w3.org/TR/2001/REC-SVG-20010904/DTD/svg10.dtd">
<svg version="1.0" xmlns="http://www.w3.org/2000/svg"
 width="500.000000pt" height="500.000000pt" viewBox="0 0 500.000000 500.000000"
 preserveAspectRatio="xMidYMid meet">

<g transform="translate(0.000000,500.000000) scale(0.100000,-0.100000)"
fill="#000000" stroke="none">
<path d="M2690 3196 c-240 -55 -379 -182 -410 -372 -11 -64 0 -160 23 -216 19
-45 78 -111 133 -149 61 -42 127 -65 328 -115 99 -25 202 -55 229 -66 79 -34
101 -106 49 -158 -43 -42 -98 -53 -237 -47 -140 6 -232 29 -349 88 -43 22 -80
38 -81 37 -2 -3 -115 -258 -121 -274 -6 -14 120 -76 211 -104 169 -51 416 -66
573 -35 172 35 316 134 378 260 27 55 29 69 29 170 0 130 -17 175 -93 250 -71
71 -161 109 -384 164 -276 69 -308 86 -308 161 0 41 51 94 105 109 106 29 285
5 437 -58 39 -17 73 -29 74 -28 5 5 114 271 114 277 0 14 -137 70 -220 91
-106 27 -391 36 -480 15z"/>
<path d="M950 3035 l0 -155 213 -2 212 -3 3 -509 2 -508 23 6 c74 22 204 46
280 52 l87 7 0 478 0 479 210 0 210 0 0 155 0 155 -620 0 -620 0 0 -155z"/>
<path d="M3701 2205 c-51 -16 -107 -66 -128 -113 -8 -19 -14 -61 -14 -94 -1
-77 31 -141 90 -183 37 -26 53 -30 119 -33 66 -3 83 0 122 21 25 13 58 43 75
66 25 36 30 54 33 115 3 55 0 82 -13 107 -29 57 -76 98 -129 114 -60 18 -97
18 -155 0z"/>
<path d="M1940 1769 c0 -26 -3 -30 -17 -24 -41 17 -55 17 -73 0 -24 -22 -27
-77 -5 -95 9 -8 29 -10 49 -7 22 4 36 1 39 -6 9 -24 15 0 22 81 5 57 4 82 -4
82 -6 0 -11 -14 -11 -31z m-20 -43 c28 -35 -11 -93 -47 -70 -36 22 -23 84 17
84 10 0 23 -7 30 -14z"/>
<path d="M1483 1767 c-45 -10 -61 -33 -18 -25 26 5 30 -2 50 -99 4 -18 11 -33
16 -33 12 0 11 14 -5 82 -14 62 -13 68 16 68 10 0 18 5 18 10 0 12 -20 11 -77
-3z"/>
<path d="M1642 1744 c-12 -8 -22 -11 -22 -5 0 6 -4 11 -9 11 -9 0 -7 -40 5
-97 8 -42 25 -25 18 18 -6 36 -4 44 17 60 29 22 21 34 -9 13z"/>
<path d="M1704 1749 c-5 -9 1 -10 20 -5 17 4 34 2 42 -5 23 -19 16 -29 -20
-29 -41 0 -65 -24 -49 -48 7 -12 25 -17 57 -18 l46 -1 0 47 c0 25 -5 51 -12
58 -15 15 -75 16 -84 1z m76 -64 c0 -18 -34 -37 -54 -29 -19 7 -21 30 -3 37
26 11 57 7 57 -8z"/>
<path d="M2005 1716 c-11 -8 -18 -26 -18 -46 0 -20 7 -38 18 -46 23 -17 75
-18 75 -3 0 6 -7 8 -16 5 -21 -8 -54 11 -54 30 0 16 13 16 73 -2 13 -4 17 1
17 25 0 46 -54 67 -95 37z m83 -36 c4 -10 -4 -11 -34 -5 -49 9 -54 13 -30 31
17 12 23 12 40 1 11 -8 22 -20 24 -27z"/>
<path d="M2583 1620 c-36 -15 -30 -54 12 -79 37 -21 46 -48 20 -57 -8 -4 -27
1 -41 11 -29 19 -45 12 -23 -10 24 -24 73 -29 92 -10 10 9 17 23 17 30 0 15
-6 21 -53 56 -25 19 -27 23 -14 36 11 12 19 12 35 4 25 -13 42 -14 42 -2 0 7
-58 34 -64 30 -1 0 -11 -4 -23 -9z"/>
<path d="M3011 1596 c-8 -20 -8 -31 -2 -36 6 -3 14 -24 19 -45 8 -41 33 -58
55 -36 8 8 5 11 -10 11 -15 0 -22 8 -27 31 -9 45 -8 49 9 49 8 0 15 5 15 11 0
6 -7 8 -15 5 -10 -4 -19 2 -24 17 -9 22 -9 21 -20 -7z"/>
<path d="M2707 1563 c-11 -11 -8 -163 3 -163 6 0 10 14 10 31 0 26 3 30 18 24
39 -17 51 -16 71 4 34 34 26 86 -16 102 -16 6 -31 5 -44 -1 -13 -7 -19 -7 -19
0 0 11 -13 13 -23 3z m93 -32 c5 -11 10 -24 10 -30 0 -14 -29 -41 -45 -41 -18
0 -45 27 -45 45 0 20 28 45 50 45 11 0 24 -9 30 -19z"/>
<path d="M2878 1559 c-23 -13 -24 -72 -2 -93 36 -37 104 -7 104 46 0 47 -57
73 -102 47z m77 -29 c3 -11 3 -29 0 -41 -10 -30 -69 -23 -73 9 -6 37 5 52 37
52 21 0 32 -6 36 -20z"/>
</g>
</svg>
